#N canvas 324 54 1285 853 10;
#X declare -lib mrpeach;
#X obj -364 13 import mrpeach;
#X obj -242 42 mrpeach/unpackOSC;
#X obj -212 65 print rawOSC;
#X obj -242 112 routeOSC /params /mode;
#X floatatom -178 135 5 0 0 0 - - -;
#X obj -113 138 print REJECTED;
#X obj -364 46 loadbang;
#X obj -364 94 s MODE;
#X msg -364 71 1;
#X floatatom -242 566 5 0 0 0 - - -;
#X floatatom -227 609 5 0 0 0 - - -;
#X floatatom -212 652 5 0 0 0 - - -;
#X floatatom -197 567 5 0 0 0 - - -;
#X floatatom -182 609 5 0 0 0 - - -;
#X floatatom -167 652 5 0 0 0 - - -;
#X floatatom -152 566 5 0 0 0 - - -;
#X floatatom -137 609 5 0 0 0 - - -;
#X obj -227 629 s p1;
#X obj -242 586 s p0;
#X obj -212 673 s p2;
#X obj -197 587 s p3;
#X obj -182 629 s p4;
#X obj -167 674 s p5;
#X obj -152 587 s p6;
#X obj -137 631 s p7;
#X obj -242 539 unpack f f f f f f f f f f f f f f f f;
#X floatatom -122 653 5 0 0 0 - - -;
#X obj -122 675 s p8;
#X floatatom -107 566 5 0 0 0 - - -;
#X floatatom -92 609 5 0 0 0 - - -;
#X floatatom -77 653 5 0 0 0 - - -;
#X obj -107 587 s p9;
#X obj -92 631 s p10;
#X obj -77 675 s p11;
#X floatatom -62 565 5 0 0 0 - - -;
#X floatatom -47 608 5 0 0 0 - - -;
#X floatatom -32 652 5 0 0 0 - - -;
#X obj -62 586 s p12;
#X obj -47 630 s p13;
#X obj -32 674 s p14;
#X floatatom -17 565 5 0 0 0 - - -;
#X obj -17 586 s p15;
#X obj -373 144 cnv 15 120 200 empty empty empty 20 12 0 14 -204786
-66577 0;
#X obj -363 251 dac~;
#X obj -345 185 hsl 60 15 0 1 0 1 empty empty volume 10 8 0 10 -257985
-1 -1 500 1;
#X obj -363 211 *~;
#X obj -298 252 s~ SON;
#X obj -363 157 catch~ GAMAINMIX;
#X obj -198 246 list prepend \$1;
#X obj 702 54 t a b;
#X obj 729 76 f;
#X obj 757 76 + 1;
#X floatatom 729 126 5 0 0 0 - - -;
#X obj 702 152 list prepend \$1;
#X obj 702 198 t a b;
#X obj 748 336 t a b;
#X obj 717 244 t a b;
#X obj 732 292 t a b;
#X obj -198 212 r RANDTEST;
#X obj 702 220 mode4;
#X obj 717 267 mode4;
#X obj 732 313 mode4;
#X obj 748 359 mode4;
#X obj 702 173 route 0 1 2 3 4 5 6 7;
#X obj 763 198 t a b;
#X obj 809 336 t a b;
#X obj 778 244 t a b;
#X obj 794 292 t a b;
#X obj 763 220 mode4;
#X obj 778 267 mode4;
#X obj 794 313 mode4;
#X obj 809 359 mode4;
#X obj 702 392 throw~ GAMAINMIX;
#X obj 729 101 mod 8;
#X obj -111 211 r MODETEST;
#X obj 974 342 s MODETEST;
#X obj -187 311 s PARAMLIST1;
#X obj -172 333 s PARAMLIST2;
#X obj -157 355 s PARAMLIST3;
#X obj -143 376 s PARAMLIST4;
#X obj -128 399 s PARAMLIST5;
#X obj -113 420 s PARAMLIST6;
#X obj -99 441 s PARAMLIST7;
#X obj -84 462 s PARAMLIST8;
#X obj 702 30 r PARAMLIST4;
#X obj 62 454 t a b;
#X obj 89 476 f;
#X obj 117 476 + 1;
#X floatatom 89 526 5 0 0 0 - - -;
#X obj 62 552 list prepend \$1;
#X obj 62 598 t a b;
#X obj 108 736 t a b;
#X obj 77 644 t a b;
#X obj 92 692 t a b;
#X obj 62 573 route 0 1 2 3 4 5 6 7;
#X obj 123 598 t a b;
#X obj 169 736 t a b;
#X obj 138 644 t a b;
#X obj 154 692 t a b;
#X obj 62 792 throw~ GAMAINMIX;
#X obj 89 501 mod 8;
#X obj 62 430 r PARAMLIST5;
#X obj 62 54 t a b;
#X obj 89 76 f;
#X obj 117 76 + 1;
#X floatatom 89 126 5 0 0 0 - - -;
#X obj 62 152 list prepend \$1;
#X obj 62 198 t a b;
#X obj 108 336 t a b;
#X obj 77 244 t a b;
#X obj 92 292 t a b;
#X obj 62 173 route 0 1 2 3 4 5 6 7;
#X obj 123 198 t a b;
#X obj 169 336 t a b;
#X obj 138 244 t a b;
#X obj 154 292 t a b;
#X obj 62 392 throw~ GAMAINMIX;
#X obj 89 101 mod 8;
#X obj 62 30 r PARAMLIST0;
#X obj -201 270 route 0 1 2 3 4 5 6 7 8 9;
#X obj -201 291 s PARAMLIST0;
#X obj -69 483 s PARAMLIST9;
#X obj 62 220 mode0;
#X obj 138 267 mode0;
#X obj 123 220 mode0;
#X obj 77 267 mode0;
#X obj 92 313 mode0;
#X obj 154 314 mode0;
#X obj 108 359 mode0;
#X obj 169 359 mode0;
#X obj 222 54 t a b;
#X obj 249 76 f;
#X obj 277 76 + 1;
#X floatatom 249 126 5 0 0 0 - - -;
#X obj 222 152 list prepend \$1;
#X obj 222 198 t a b;
#X obj 268 336 t a b;
#X obj 237 244 t a b;
#X obj 252 292 t a b;
#X obj 222 173 route 0 1 2 3 4 5 6 7;
#X obj 283 198 t a b;
#X obj 329 336 t a b;
#X obj 298 244 t a b;
#X obj 314 292 t a b;
#X obj 222 392 throw~ GAMAINMIX;
#X obj 249 101 mod 8;
#X obj 222 30 r PARAMLIST1;
#X obj 237 267 mode1;
#X obj 222 220 mode1;
#X obj 283 220 mode1;
#X obj 298 267 mode1;
#X obj 252 313 mode1;
#X obj 314 314 mode1;
#X obj 268 359 mode1;
#X obj 329 359 mode1;
#X obj 382 54 t a b;
#X obj 409 76 f;
#X obj 437 76 + 1;
#X floatatom 409 126 5 0 0 0 - - -;
#X obj 382 152 list prepend \$1;
#X obj 382 198 t a b;
#X obj 428 336 t a b;
#X obj 397 244 t a b;
#X obj 412 292 t a b;
#X obj 382 173 route 0 1 2 3 4 5 6 7;
#X obj 443 198 t a b;
#X obj 489 336 t a b;
#X obj 458 244 t a b;
#X obj 474 292 t a b;
#X obj 382 392 throw~ GAMAINMIX;
#X obj 409 101 mod 8;
#X obj 542 54 t a b;
#X obj 569 76 f;
#X obj 597 76 + 1;
#X floatatom 569 126 5 0 0 0 - - -;
#X obj 542 152 list prepend \$1;
#X obj 542 198 t a b;
#X obj 588 336 t a b;
#X obj 557 244 t a b;
#X obj 572 292 t a b;
#X obj 542 173 route 0 1 2 3 4 5 6 7;
#X obj 603 198 t a b;
#X obj 649 336 t a b;
#X obj 618 244 t a b;
#X obj 634 292 t a b;
#X obj 542 392 throw~ GAMAINMIX;
#X obj 569 101 mod 8;
#X obj 222 454 t a b;
#X obj 249 476 f;
#X obj 277 476 + 1;
#X floatatom 249 526 5 0 0 0 - - -;
#X obj 222 552 list prepend \$1;
#X obj 222 598 t a b;
#X obj 268 736 t a b;
#X obj 237 644 t a b;
#X obj 252 692 t a b;
#X obj 222 573 route 0 1 2 3 4 5 6 7;
#X obj 283 598 t a b;
#X obj 329 736 t a b;
#X obj 298 644 t a b;
#X obj 314 692 t a b;
#X obj 222 792 throw~ GAMAINMIX;
#X obj 249 501 mod 8;
#X obj 382 454 t a b;
#X obj 409 476 f;
#X obj 437 476 + 1;
#X floatatom 409 526 5 0 0 0 - - -;
#X obj 382 552 list prepend \$1;
#X obj 382 598 t a b;
#X obj 428 736 t a b;
#X obj 397 644 t a b;
#X obj 412 692 t a b;
#X obj 382 573 route 0 1 2 3 4 5 6 7;
#X obj 443 598 t a b;
#X obj 489 736 t a b;
#X obj 458 644 t a b;
#X obj 474 692 t a b;
#X obj 382 792 throw~ GAMAINMIX;
#X obj 409 501 mod 8;
#X obj 542 454 t a b;
#X obj 569 476 f;
#X obj 597 476 + 1;
#X floatatom 569 526 5 0 0 0 - - -;
#X obj 542 552 list prepend \$1;
#X obj 542 598 t a b;
#X obj 588 736 t a b;
#X obj 557 644 t a b;
#X obj 572 692 t a b;
#X obj 542 573 route 0 1 2 3 4 5 6 7;
#X obj 603 598 t a b;
#X obj 649 736 t a b;
#X obj 618 644 t a b;
#X obj 634 692 t a b;
#X obj 542 792 throw~ GAMAINMIX;
#X obj 569 501 mod 8;
#X obj 702 454 t a b;
#X obj 729 476 f;
#X obj 757 476 + 1;
#X floatatom 729 526 5 0 0 0 - - -;
#X obj 702 552 list prepend \$1;
#X obj 702 598 t a b;
#X obj 748 736 t a b;
#X obj 717 644 t a b;
#X obj 732 692 t a b;
#X obj 702 573 route 0 1 2 3 4 5 6 7;
#X obj 763 598 t a b;
#X obj 809 736 t a b;
#X obj 778 644 t a b;
#X obj 794 692 t a b;
#X obj 702 792 throw~ GAMAINMIX;
#X obj 729 501 mod 8;
#X obj 382 30 r PARAMLIST2;
#X obj 382 220 mode2;
#X obj 397 267 mode2;
#X obj 412 313 mode2;
#X obj 428 359 mode2;
#X obj 443 220 mode2;
#X obj 458 267 mode2;
#X obj 474 313 mode2;
#X obj 489 359 mode2;
#X obj 542 220 mode3;
#X obj 557 267 mode3;
#X obj 572 313 mode3;
#X obj 588 359 mode3;
#X obj 542 30 r PARAMLIST3;
#X obj 603 220 mode3;
#X obj 618 267 mode3;
#X obj 634 313 mode3;
#X obj 649 359 mode3;
#X obj 222 430 r PARAMLIST6;
#X obj 382 430 r PARAMLIST7;
#X obj 542 430 r PARAMLIST8;
#X obj 702 430 r PARAMLIST9;
#X obj 62 620 mode5;
#X obj 77 667 mode5;
#X obj 92 713 mode5;
#X obj 109 759 mode5;
#X obj 123 620 mode5;
#X obj 138 667 mode5;
#X obj 154 713 mode5;
#X obj 169 759 mode5;
#X obj 222 620 mode6;
#X obj 237 667 mode6;
#X obj 252 713 mode6;
#X obj 268 759 mode6;
#X obj 283 620 mode6;
#X obj 298 667 mode6;
#X obj 314 713 mode6;
#X obj 329 759 mode6;
#X obj 382 620 mode7;
#X obj 397 667 mode7;
#X obj 412 713 mode7;
#X obj 428 759 mode7;
#X obj 443 620 mode7;
#X obj 458 667 mode7;
#X obj 474 713 mode7;
#X obj 489 759 mode7;
#X obj 542 620 mode8;
#X obj 557 667 mode8;
#X obj 572 713 mode8;
#X obj 588 759 mode8;
#X obj 603 620 mode8;
#X obj 618 667 mode8;
#X obj 634 713 mode8;
#X obj 649 759 mode8;
#X obj 702 620 mode9;
#X obj 717 667 mode9;
#X obj 732 713 mode9;
#X obj 748 759 mode9;
#X obj 763 620 mode9;
#X obj 778 667 mode9;
#X obj 794 713 mode9;
#X obj 809 759 mode9;
#X msg 896 270 0;
#X msg 927 270 1;
#X msg 960 270 2;
#X msg 991 270 3;
#X msg 1022 270 4;
#X msg 910 294 5;
#X msg 941 294 6;
#X msg 974 294 7;
#X msg 1005 294 8;
#X msg 1036 294 9;
#X obj -242 13 mrpeach/udpreceive 57120;
#X floatatom -40 245 5 0 0 0 - - -;
#X obj 917 537 random 1000;
#X obj 917 557 / 1000;
#X obj 932 579 random 1000;
#X obj 932 599 / 1000;
#X obj 947 622 random 1000;
#X obj 947 642 / 1000;
#X obj 957 665 random 1000;
#X obj 957 685 / 1000;
#X obj 1003 536 random 1000;
#X obj 1003 556 / 1000;
#X obj 1018 579 random 1000;
#X obj 1018 599 / 1000;
#X obj 1026 622 random 1000;
#X obj 1026 642 / 1000;
#X obj 1036 666 random 1000;
#X obj 1036 686 / 1000;
#X obj 917 408 bng 30 250 50 0 empty empty RANDOM_TEST 35 15 0 16 -262130
-1 -1;
#X obj 942 771 print randomtestparam;
#X obj 917 792 s RANDTEST;
#X obj 861 485 bng 15 250 50 0 empty empty REPLAY 17 7 0 10 -262130
-1 -1;
#X obj 1093 536 random 1000;
#X obj 1093 556 / 1000;
#X obj 1108 579 random 1000;
#X obj 1108 599 / 1000;
#X obj 1116 622 random 1000;
#X obj 1116 642 / 1000;
#X obj 1126 666 random 1000;
#X obj 1126 686 / 1000;
#X obj 1198 579 random 1000;
#X obj 1198 599 / 1000;
#X obj 1206 622 random 1000;
#X obj 1206 642 / 1000;
#X obj 1216 666 random 1000;
#X obj 1216 686 / 1000;
#X obj 917 474 t b b b b b b b b b b b b b b b b;
#X obj 1188 535 random 1000;
#X obj 1188 555 / 1000;
#X obj 918 728 pack f f f f f f f f f f f f f f f f;
#X msg 917 750 \$1 \$2 \$3 \$4 \$5 \$6 \$7 \$8 \$9 \$10 \$11 \$12 \$13
\$14 \$15 \$16;
#X connect 1 0 2 0;
#X connect 1 0 3 0;
#X connect 3 0 25 0;
#X connect 3 0 48 0;
#X connect 3 1 4 0;
#X connect 3 2 5 0;
#X connect 4 0 48 1;
#X connect 6 0 8 0;
#X connect 8 0 7 0;
#X connect 9 0 18 0;
#X connect 10 0 17 0;
#X connect 11 0 19 0;
#X connect 12 0 20 0;
#X connect 13 0 21 0;
#X connect 14 0 22 0;
#X connect 15 0 23 0;
#X connect 16 0 24 0;
#X connect 25 0 9 0;
#X connect 25 1 10 0;
#X connect 25 2 11 0;
#X connect 25 3 12 0;
#X connect 25 4 13 0;
#X connect 25 5 14 0;
#X connect 25 6 15 0;
#X connect 25 7 16 0;
#X connect 25 8 26 0;
#X connect 25 9 28 0;
#X connect 25 10 29 0;
#X connect 25 11 30 0;
#X connect 25 12 34 0;
#X connect 25 13 35 0;
#X connect 25 14 36 0;
#X connect 25 15 40 0;
#X connect 26 0 27 0;
#X connect 28 0 31 0;
#X connect 29 0 32 0;
#X connect 30 0 33 0;
#X connect 34 0 37 0;
#X connect 35 0 38 0;
#X connect 36 0 39 0;
#X connect 40 0 41 0;
#X connect 44 0 45 1;
#X connect 45 0 43 0;
#X connect 45 0 43 1;
#X connect 47 0 45 0;
#X connect 48 0 119 0;
#X connect 49 0 53 0;
#X connect 49 1 50 0;
#X connect 50 0 51 0;
#X connect 50 0 73 0;
#X connect 51 0 50 1;
#X connect 52 0 53 1;
#X connect 53 0 63 0;
#X connect 54 0 59 0;
#X connect 54 1 59 1;
#X connect 55 0 62 0;
#X connect 55 1 62 1;
#X connect 56 0 60 0;
#X connect 56 1 60 1;
#X connect 57 0 61 0;
#X connect 57 1 61 1;
#X connect 58 0 48 0;
#X connect 59 0 72 0;
#X connect 60 0 72 0;
#X connect 61 0 72 0;
#X connect 62 0 72 0;
#X connect 63 0 54 0;
#X connect 63 1 56 0;
#X connect 63 2 57 0;
#X connect 63 3 55 0;
#X connect 63 4 64 0;
#X connect 63 5 66 0;
#X connect 63 6 67 0;
#X connect 63 7 65 0;
#X connect 64 0 68 0;
#X connect 64 1 68 1;
#X connect 65 0 71 0;
#X connect 65 1 71 1;
#X connect 66 0 69 0;
#X connect 66 1 69 1;
#X connect 67 0 70 0;
#X connect 67 1 70 1;
#X connect 68 0 72 0;
#X connect 69 0 72 0;
#X connect 70 0 72 0;
#X connect 71 0 72 0;
#X connect 73 0 52 0;
#X connect 74 0 48 1;
#X connect 74 0 324 0;
#X connect 84 0 49 0;
#X connect 85 0 89 0;
#X connect 85 1 86 0;
#X connect 86 0 87 0;
#X connect 86 0 100 0;
#X connect 87 0 86 1;
#X connect 88 0 89 1;
#X connect 89 0 94 0;
#X connect 90 0 273 0;
#X connect 90 1 273 1;
#X connect 91 0 276 0;
#X connect 91 1 276 1;
#X connect 92 0 274 0;
#X connect 92 1 274 1;
#X connect 93 0 275 0;
#X connect 93 1 275 1;
#X connect 94 0 90 0;
#X connect 94 1 92 0;
#X connect 94 2 93 0;
#X connect 94 3 91 0;
#X connect 94 4 95 0;
#X connect 94 5 97 0;
#X connect 94 6 98 0;
#X connect 94 7 96 0;
#X connect 95 0 277 0;
#X connect 95 1 277 1;
#X connect 96 0 280 0;
#X connect 96 1 280 1;
#X connect 97 0 278 0;
#X connect 97 1 278 1;
#X connect 98 0 279 0;
#X connect 98 1 279 1;
#X connect 100 0 88 0;
#X connect 101 0 85 0;
#X connect 102 0 106 0;
#X connect 102 1 103 0;
#X connect 103 0 104 0;
#X connect 103 0 117 0;
#X connect 104 0 103 1;
#X connect 105 0 106 1;
#X connect 106 0 111 0;
#X connect 107 0 122 0;
#X connect 107 1 122 1;
#X connect 108 0 128 0;
#X connect 108 1 128 1;
#X connect 109 0 125 0;
#X connect 109 1 125 1;
#X connect 110 0 126 0;
#X connect 110 1 126 1;
#X connect 111 0 107 0;
#X connect 111 1 109 0;
#X connect 111 2 110 0;
#X connect 111 3 108 0;
#X connect 111 4 112 0;
#X connect 111 5 114 0;
#X connect 111 6 115 0;
#X connect 111 7 113 0;
#X connect 112 0 124 0;
#X connect 112 1 124 1;
#X connect 113 0 129 0;
#X connect 113 1 129 1;
#X connect 114 0 123 0;
#X connect 114 1 123 1;
#X connect 115 0 127 0;
#X connect 115 1 127 1;
#X connect 117 0 105 0;
#X connect 118 0 102 0;
#X connect 119 0 120 0;
#X connect 119 1 76 0;
#X connect 119 2 77 0;
#X connect 119 3 78 0;
#X connect 119 4 79 0;
#X connect 119 5 80 0;
#X connect 119 6 81 0;
#X connect 119 7 82 0;
#X connect 119 8 83 0;
#X connect 119 9 121 0;
#X connect 122 0 116 0;
#X connect 123 0 116 0;
#X connect 124 0 116 0;
#X connect 125 0 116 0;
#X connect 126 0 116 0;
#X connect 127 0 116 0;
#X connect 128 0 116 0;
#X connect 129 0 116 0;
#X connect 130 0 134 0;
#X connect 130 1 131 0;
#X connect 131 0 132 0;
#X connect 131 0 145 0;
#X connect 132 0 131 1;
#X connect 133 0 134 1;
#X connect 134 0 139 0;
#X connect 135 0 148 0;
#X connect 135 1 148 1;
#X connect 136 0 153 0;
#X connect 136 1 153 1;
#X connect 137 0 147 0;
#X connect 137 1 147 1;
#X connect 138 0 151 0;
#X connect 138 1 151 1;
#X connect 139 0 135 0;
#X connect 139 1 137 0;
#X connect 139 2 138 0;
#X connect 139 3 136 0;
#X connect 139 4 140 0;
#X connect 139 5 142 0;
#X connect 139 6 143 0;
#X connect 139 7 141 0;
#X connect 140 0 149 0;
#X connect 140 1 149 1;
#X connect 141 0 154 0;
#X connect 141 1 154 1;
#X connect 142 0 150 0;
#X connect 142 1 150 1;
#X connect 143 0 152 0;
#X connect 143 1 152 1;
#X connect 145 0 133 0;
#X connect 146 0 130 0;
#X connect 147 0 144 0;
#X connect 148 0 144 0;
#X connect 149 0 144 0;
#X connect 150 0 144 0;
#X connect 151 0 144 0;
#X connect 152 0 144 0;
#X connect 153 0 144 0;
#X connect 154 0 144 0;
#X connect 155 0 159 0;
#X connect 155 1 156 0;
#X connect 156 0 157 0;
#X connect 156 0 170 0;
#X connect 157 0 156 1;
#X connect 158 0 159 1;
#X connect 159 0 164 0;
#X connect 160 0 252 0;
#X connect 160 1 252 1;
#X connect 161 0 255 0;
#X connect 161 1 255 1;
#X connect 162 0 253 0;
#X connect 162 1 253 1;
#X connect 163 0 254 0;
#X connect 163 1 254 1;
#X connect 164 0 160 0;
#X connect 164 1 162 0;
#X connect 164 2 163 0;
#X connect 164 3 161 0;
#X connect 164 4 165 0;
#X connect 164 5 167 0;
#X connect 164 6 168 0;
#X connect 164 7 166 0;
#X connect 165 0 256 0;
#X connect 165 1 256 1;
#X connect 166 0 259 0;
#X connect 166 1 259 1;
#X connect 167 0 257 0;
#X connect 167 1 257 1;
#X connect 168 0 258 0;
#X connect 168 1 258 1;
#X connect 170 0 158 0;
#X connect 171 0 175 0;
#X connect 171 1 172 0;
#X connect 172 0 173 0;
#X connect 172 0 186 0;
#X connect 173 0 172 1;
#X connect 174 0 175 1;
#X connect 175 0 180 0;
#X connect 176 0 260 0;
#X connect 176 1 260 1;
#X connect 177 0 263 0;
#X connect 177 1 263 1;
#X connect 178 0 261 0;
#X connect 178 1 261 1;
#X connect 179 0 262 0;
#X connect 179 1 262 1;
#X connect 180 0 176 0;
#X connect 180 1 178 0;
#X connect 180 2 179 0;
#X connect 180 3 177 0;
#X connect 180 4 181 0;
#X connect 180 5 183 0;
#X connect 180 6 184 0;
#X connect 180 7 182 0;
#X connect 181 0 265 0;
#X connect 181 1 265 1;
#X connect 182 0 268 0;
#X connect 182 1 268 1;
#X connect 183 0 266 0;
#X connect 183 1 266 1;
#X connect 184 0 267 0;
#X connect 184 1 267 1;
#X connect 186 0 174 0;
#X connect 187 0 191 0;
#X connect 187 1 188 0;
#X connect 188 0 189 0;
#X connect 188 0 202 0;
#X connect 189 0 188 1;
#X connect 190 0 191 1;
#X connect 191 0 196 0;
#X connect 192 0 281 0;
#X connect 192 1 281 1;
#X connect 193 0 284 0;
#X connect 193 1 284 1;
#X connect 194 0 282 0;
#X connect 194 1 282 1;
#X connect 195 0 283 0;
#X connect 195 1 283 1;
#X connect 196 0 192 0;
#X connect 196 1 194 0;
#X connect 196 2 195 0;
#X connect 196 3 193 0;
#X connect 196 4 197 0;
#X connect 196 5 199 0;
#X connect 196 6 200 0;
#X connect 196 7 198 0;
#X connect 197 0 285 0;
#X connect 197 1 285 1;
#X connect 198 0 288 0;
#X connect 198 1 288 1;
#X connect 199 0 286 0;
#X connect 199 1 286 1;
#X connect 200 0 287 0;
#X connect 200 1 287 1;
#X connect 202 0 190 0;
#X connect 203 0 207 0;
#X connect 203 1 204 0;
#X connect 204 0 205 0;
#X connect 204 0 218 0;
#X connect 205 0 204 1;
#X connect 206 0 207 1;
#X connect 207 0 212 0;
#X connect 208 0 289 0;
#X connect 208 1 289 1;
#X connect 209 0 292 0;
#X connect 209 1 292 1;
#X connect 210 0 290 0;
#X connect 210 1 290 1;
#X connect 211 0 291 0;
#X connect 211 1 291 1;
#X connect 212 0 208 0;
#X connect 212 1 210 0;
#X connect 212 2 211 0;
#X connect 212 3 209 0;
#X connect 212 4 213 0;
#X connect 212 5 215 0;
#X connect 212 6 216 0;
#X connect 212 7 214 0;
#X connect 213 0 293 0;
#X connect 213 1 293 1;
#X connect 214 0 296 0;
#X connect 214 1 296 1;
#X connect 215 0 294 0;
#X connect 215 1 294 1;
#X connect 216 0 295 0;
#X connect 216 1 295 1;
#X connect 218 0 206 0;
#X connect 219 0 223 0;
#X connect 219 1 220 0;
#X connect 220 0 221 0;
#X connect 220 0 234 0;
#X connect 221 0 220 1;
#X connect 222 0 223 1;
#X connect 223 0 228 0;
#X connect 224 0 297 0;
#X connect 224 1 297 1;
#X connect 225 0 300 0;
#X connect 225 1 300 1;
#X connect 226 0 298 0;
#X connect 226 1 298 1;
#X connect 227 0 299 0;
#X connect 227 1 299 1;
#X connect 228 0 224 0;
#X connect 228 1 226 0;
#X connect 228 2 227 0;
#X connect 228 3 225 0;
#X connect 228 4 229 0;
#X connect 228 5 231 0;
#X connect 228 6 232 0;
#X connect 228 7 230 0;
#X connect 229 0 301 0;
#X connect 229 1 301 1;
#X connect 230 0 304 0;
#X connect 230 1 304 1;
#X connect 231 0 302 0;
#X connect 231 1 302 1;
#X connect 232 0 303 0;
#X connect 232 1 303 1;
#X connect 234 0 222 0;
#X connect 235 0 239 0;
#X connect 235 1 236 0;
#X connect 236 0 237 0;
#X connect 236 0 250 0;
#X connect 237 0 236 1;
#X connect 238 0 239 1;
#X connect 239 0 244 0;
#X connect 240 0 305 0;
#X connect 240 1 305 1;
#X connect 241 0 308 0;
#X connect 241 1 308 1;
#X connect 242 0 306 0;
#X connect 242 1 306 1;
#X connect 243 0 307 0;
#X connect 243 1 307 1;
#X connect 244 0 240 0;
#X connect 244 1 242 0;
#X connect 244 2 243 0;
#X connect 244 3 241 0;
#X connect 244 4 245 0;
#X connect 244 5 247 0;
#X connect 244 6 248 0;
#X connect 244 7 246 0;
#X connect 245 0 309 0;
#X connect 245 1 309 1;
#X connect 246 0 312 0;
#X connect 246 1 312 1;
#X connect 247 0 310 0;
#X connect 247 1 310 1;
#X connect 248 0 311 0;
#X connect 248 1 311 1;
#X connect 250 0 238 0;
#X connect 251 0 155 0;
#X connect 252 0 169 0;
#X connect 253 0 169 0;
#X connect 254 0 169 0;
#X connect 255 0 169 0;
#X connect 256 0 169 0;
#X connect 257 0 169 0;
#X connect 258 0 169 0;
#X connect 259 0 169 0;
#X connect 260 0 185 0;
#X connect 261 0 185 0;
#X connect 262 0 185 0;
#X connect 263 0 185 0;
#X connect 264 0 171 0;
#X connect 265 0 185 0;
#X connect 266 0 185 0;
#X connect 267 0 185 0;
#X connect 268 0 185 0;
#X connect 269 0 187 0;
#X connect 270 0 203 0;
#X connect 271 0 219 0;
#X connect 272 0 235 0;
#X connect 273 0 99 0;
#X connect 274 0 99 0;
#X connect 275 0 99 0;
#X connect 276 0 99 0;
#X connect 277 0 99 0;
#X connect 278 0 99 0;
#X connect 279 0 99 0;
#X connect 280 0 99 0;
#X connect 281 0 201 0;
#X connect 282 0 201 0;
#X connect 283 0 201 0;
#X connect 284 0 201 0;
#X connect 285 0 201 0;
#X connect 286 0 201 0;
#X connect 287 0 201 0;
#X connect 288 0 201 0;
#X connect 289 0 217 0;
#X connect 290 0 217 0;
#X connect 291 0 217 0;
#X connect 292 0 217 0;
#X connect 293 0 217 0;
#X connect 294 0 217 0;
#X connect 295 0 217 0;
#X connect 296 0 217 0;
#X connect 297 0 233 0;
#X connect 298 0 233 0;
#X connect 299 0 233 0;
#X connect 300 0 233 0;
#X connect 301 0 233 0;
#X connect 302 0 233 0;
#X connect 303 0 233 0;
#X connect 304 0 233 0;
#X connect 305 0 249 0;
#X connect 306 0 249 0;
#X connect 307 0 249 0;
#X connect 308 0 249 0;
#X connect 309 0 249 0;
#X connect 310 0 249 0;
#X connect 311 0 249 0;
#X connect 312 0 249 0;
#X connect 313 0 75 0;
#X connect 314 0 75 0;
#X connect 315 0 75 0;
#X connect 316 0 75 0;
#X connect 317 0 75 0;
#X connect 318 0 75 0;
#X connect 319 0 75 0;
#X connect 320 0 75 0;
#X connect 321 0 75 0;
#X connect 322 0 75 0;
#X connect 323 0 1 0;
#X connect 325 0 326 0;
#X connect 326 0 362 0;
#X connect 327 0 328 0;
#X connect 328 0 362 1;
#X connect 329 0 330 0;
#X connect 330 0 362 2;
#X connect 331 0 332 0;
#X connect 332 0 362 3;
#X connect 333 0 334 0;
#X connect 334 0 362 4;
#X connect 335 0 336 0;
#X connect 336 0 362 5;
#X connect 337 0 338 0;
#X connect 338 0 362 6;
#X connect 339 0 340 0;
#X connect 340 0 362 7;
#X connect 341 0 359 0;
#X connect 344 0 362 0;
#X connect 345 0 346 0;
#X connect 346 0 362 8;
#X connect 347 0 348 0;
#X connect 348 0 362 9;
#X connect 349 0 350 0;
#X connect 350 0 362 10;
#X connect 351 0 352 0;
#X connect 352 0 362 11;
#X connect 353 0 354 0;
#X connect 354 0 362 13;
#X connect 355 0 356 0;
#X connect 356 0 362 14;
#X connect 357 0 358 0;
#X connect 358 0 362 14;
#X connect 359 0 325 0;
#X connect 359 1 327 0;
#X connect 359 2 329 0;
#X connect 359 3 331 0;
#X connect 359 4 339 0;
#X connect 359 5 337 0;
#X connect 359 6 335 0;
#X connect 359 7 333 0;
#X connect 359 8 345 0;
#X connect 359 9 347 0;
#X connect 359 10 349 0;
#X connect 359 11 351 0;
#X connect 359 12 360 0;
#X connect 359 13 353 0;
#X connect 359 14 355 0;
#X connect 359 15 357 0;
#X connect 360 0 361 0;
#X connect 361 0 362 12;
#X connect 362 0 363 0;
#X connect 363 0 342 0;
#X connect 363 0 343 0;
