#N canvas 33 43 903 870 10;
#X obj 252 815 outlet~;
#X obj 252 794 *~;
#X obj 335 759 vline~;
#X obj 84 34 s \$0-FIRE;
#X obj -160 304 r \$0-p0;
#X obj -144 325 r \$0-p1;
#X obj -128 346 r \$0-p2;
#X obj -112 367 r \$0-p3;
#X obj -96 388 r \$0-p4;
#X obj -80 409 r \$0-p5;
#X obj -64 430 r \$0-p6;
#X obj -47 451 r \$0-p7;
#X obj 335 661 r \$0-p9;
#X obj 388 661 r \$0-p10;
#X obj 448 661 r \$0-p11;
#X obj 217 104 r \$0-p12;
#X obj 216 134 r \$0-p13;
#X obj 215 164 r \$0-p14;
#X obj 216 196 r \$0-p15;
#N canvas 0 0 450 300 (subpatch) 0;
#X array \$0-wave 515 float 0;
#X coords 0 1 514 -1 100 70 1;
#X restore -6 330 graph;
#X obj 84 0 inlet;
#X obj -176 278 pack \$0;
#X obj -176 475 pack f f f f f f f f f;
#X msg -176 501 \; \$1-wave sinesum 512 1 \$2 \$3 \$4 \$5 \$6 \$7 \$8
\$9;
#X obj 252 541 pack \$0;
#X msg 252 562 set \$1-wave;
#X obj 252 647 tabosc4~;
#X obj -176 257 r \$0-FIRE;
#X obj 252 517 r \$0-FIRE;
#X obj -185 3 inlet;
#X floatatom -185 62 5 0 0 0 - - -;
#X floatatom -170 105 5 0 0 0 - - -;
#X floatatom -155 148 5 0 0 0 - - -;
#X floatatom -140 193 5 0 0 0 - - -;
#X floatatom -125 63 5 0 0 0 - - -;
#X floatatom -110 105 5 0 0 0 - - -;
#X floatatom -95 149 5 0 0 0 - - -;
#X floatatom -80 192 5 0 0 0 - - -;
#X obj -185 35 unpack f f f f f f f f f f f f f f f f;
#X floatatom -65 63 5 0 0 0 - - -;
#X floatatom -50 106 5 0 0 0 - - -;
#X floatatom -35 149 5 0 0 0 - - -;
#X floatatom -20 193 5 0 0 0 - - -;
#X floatatom -5 61 5 0 0 0 - - -;
#X floatatom 10 104 5 0 0 0 - - -;
#X floatatom 25 148 5 0 0 0 - - -;
#X floatatom 40 193 5 0 0 0 - - -;
#X obj -185 82 s \$0-p0;
#X obj -170 125 s \$0-p1;
#X obj -155 169 s \$0-p2;
#X obj -140 214 s \$0-p3;
#X obj -125 83 s \$0-p4;
#X obj -110 127 s \$0-p5;
#X obj -65 85 s \$0-p8;
#X obj -50 127 s \$0-p9;
#X obj -35 171 s \$0-p10;
#X obj -20 214 s \$0-p11;
#X obj -5 82 s \$0-p12;
#X obj 10 126 s \$0-p13;
#X obj 25 170 s \$0-p14;
#X obj 40 214 s \$0-p15;
#X obj -95 170 s \$0-p6;
#X obj -80 214 s \$0-p7;
#X msg 335 736 1 \$1 0 \, 0 \$2 \$3;
#X obj 335 685 * 1000;
#X obj 388 684 * 1000;
#X obj 448 684 * 1000;
#X obj 335 712 pack f f f;
#N canvas 0 0 450 300 (subpatch) 0;
#X array \$0-wave2 515 float 4;
#X coords 0 1 514 -1 100 70 1;
#X restore 323 263 graph;
#X obj 434 268 pack \$0;
#X obj 434 247 r \$0-FIRE;
#X obj 450 294 r \$0-p12;
#X obj 466 315 r \$0-p13;
#X obj 482 336 r \$0-p14;
#X obj 498 357 r \$0-p15;
#X obj 433 465 pack f f f f f;
#X msg 433 487 \; \$1-wave2 sinesum 512 1 \$2 \$3 \$4 \$5;
#X obj 167 328 r \$0-p8;
#X obj 209 383 pack \$0;
#X obj 209 439 tabosc4~;
#X obj 209 359 r \$0-FIRE;
#X msg 209 404 set \$1-wave2;
#X obj 588 680 *~;
#X obj 209 463 +~ 1;
#X msg 555 668 0;
#X msg 297 618 0;
#X obj 297 593 r \$0-FIRE;
#X obj 523 568 r \$0-p8;
#X obj 523 612 + 100;
#X obj 523 590 * 10000;
#X obj 208 487 *~ 256;
#X msg 308 399 0;
#X obj 308 378 r \$0-FIRE;
#X obj 167 351 * 10;
#X connect 1 0 0 0;
#X connect 2 0 1 1;
#X connect 4 0 22 1;
#X connect 5 0 22 2;
#X connect 6 0 22 3;
#X connect 7 0 22 4;
#X connect 8 0 22 5;
#X connect 9 0 22 6;
#X connect 10 0 22 7;
#X connect 11 0 22 8;
#X connect 12 0 64 0;
#X connect 13 0 65 0;
#X connect 14 0 66 0;
#X connect 20 0 3 0;
#X connect 21 0 22 0;
#X connect 22 0 23 0;
#X connect 24 0 25 0;
#X connect 25 0 26 0;
#X connect 26 0 1 0;
#X connect 27 0 21 0;
#X connect 28 0 24 0;
#X connect 29 0 38 0;
#X connect 30 0 47 0;
#X connect 31 0 48 0;
#X connect 32 0 49 0;
#X connect 33 0 50 0;
#X connect 34 0 51 0;
#X connect 35 0 52 0;
#X connect 36 0 61 0;
#X connect 37 0 62 0;
#X connect 38 0 30 0;
#X connect 38 1 31 0;
#X connect 38 2 32 0;
#X connect 38 3 33 0;
#X connect 38 4 34 0;
#X connect 38 5 35 0;
#X connect 38 6 36 0;
#X connect 38 7 37 0;
#X connect 38 8 39 0;
#X connect 38 9 40 0;
#X connect 38 10 41 0;
#X connect 38 11 42 0;
#X connect 38 12 43 0;
#X connect 38 13 44 0;
#X connect 38 14 45 0;
#X connect 38 15 46 0;
#X connect 39 0 53 0;
#X connect 40 0 54 0;
#X connect 41 0 55 0;
#X connect 42 0 56 0;
#X connect 43 0 57 0;
#X connect 44 0 58 0;
#X connect 45 0 59 0;
#X connect 46 0 60 0;
#X connect 63 0 2 0;
#X connect 64 0 67 0;
#X connect 65 0 67 1;
#X connect 66 0 67 2;
#X connect 67 0 63 0;
#X connect 69 0 75 0;
#X connect 70 0 69 0;
#X connect 71 0 75 1;
#X connect 72 0 75 2;
#X connect 73 0 75 3;
#X connect 74 0 75 4;
#X connect 75 0 76 0;
#X connect 77 0 93 0;
#X connect 78 0 81 0;
#X connect 79 0 83 0;
#X connect 80 0 78 0;
#X connect 81 0 79 0;
#X connect 83 0 90 0;
#X connect 85 0 26 1;
#X connect 86 0 85 0;
#X connect 87 0 89 0;
#X connect 89 0 88 0;
#X connect 90 0 26 0;
#X connect 91 0 79 1;
#X connect 92 0 91 0;
#X connect 93 0 79 0;
