#N canvas 63 14 696 870 10;
#X obj -198 22 inlet;
#X obj 40 514 outlet~;
#X obj 227 30 inlet FIRE;
#X obj 40 480 *~;
#X obj 55 459 vline~;
#X obj 227 60 s \$0-FIRE;
#X obj 116 236 r \$0-p0;
#X floatatom -198 81 5 0 0 0 - - -;
#X floatatom -183 124 5 0 0 0 - - -;
#X floatatom -168 167 5 0 0 0 - - -;
#X floatatom -153 212 5 0 0 0 - - -;
#X floatatom -138 82 5 0 0 0 - - -;
#X floatatom -123 124 5 0 0 0 - - -;
#X floatatom -108 168 5 0 0 0 - - -;
#X floatatom -93 211 5 0 0 0 - - -;
#X obj -198 54 unpack f f f f f f f f f f f f f f f f;
#X floatatom -78 82 5 0 0 0 - - -;
#X floatatom -63 125 5 0 0 0 - - -;
#X floatatom -48 168 5 0 0 0 - - -;
#X floatatom -33 212 5 0 0 0 - - -;
#X floatatom -18 80 5 0 0 0 - - -;
#X floatatom -3 123 5 0 0 0 - - -;
#X floatatom 12 167 5 0 0 0 - - -;
#X floatatom 27 212 5 0 0 0 - - -;
#X obj 115 268 r \$0-p1;
#X obj 116 298 r \$0-p2;
#X obj 115 330 r \$0-p3;
#X obj 181 235 r \$0-p4;
#X obj 181 267 r \$0-p5;
#X obj 182 297 r \$0-p6;
#X obj 181 330 r \$0-p7;
#X obj 251 236 r \$0-p8;
#X obj 250 265 r \$0-p9;
#X obj 249 297 r \$0-p10;
#X obj 249 329 r \$0-p11;
#X obj 316 236 r \$0-p12;
#X obj 315 266 r \$0-p13;
#X obj 314 296 r \$0-p14;
#X obj 315 328 r \$0-p15;
#X obj -198 101 s \$0-p0;
#X obj -183 144 s \$0-p1;
#X obj -168 188 s \$0-p2;
#X obj -153 233 s \$0-p3;
#X obj -138 102 s \$0-p4;
#X obj -123 146 s \$0-p5;
#X obj -78 104 s \$0-p8;
#X obj -63 146 s \$0-p9;
#X obj -48 190 s \$0-p10;
#X obj -33 233 s \$0-p11;
#X obj -18 101 s \$0-p12;
#X obj -3 145 s \$0-p13;
#X obj 12 189 s \$0-p14;
#X obj 27 233 s \$0-p15;
#X obj -108 189 s \$0-p6;
#X obj -93 233 s \$0-p7;
#X connect 0 0 15 0;
#X connect 2 0 5 0;
#X connect 3 0 1 0;
#X connect 4 0 3 1;
#X connect 7 0 39 0;
#X connect 8 0 40 0;
#X connect 9 0 41 0;
#X connect 10 0 42 0;
#X connect 11 0 43 0;
#X connect 12 0 44 0;
#X connect 13 0 53 0;
#X connect 14 0 54 0;
#X connect 15 0 7 0;
#X connect 15 1 8 0;
#X connect 15 2 9 0;
#X connect 15 3 10 0;
#X connect 15 4 11 0;
#X connect 15 5 12 0;
#X connect 15 6 13 0;
#X connect 15 7 14 0;
#X connect 15 8 16 0;
#X connect 15 9 17 0;
#X connect 15 10 18 0;
#X connect 15 11 19 0;
#X connect 15 12 20 0;
#X connect 15 13 21 0;
#X connect 15 14 22 0;
#X connect 15 15 23 0;
#X connect 16 0 45 0;
#X connect 17 0 46 0;
#X connect 18 0 47 0;
#X connect 19 0 48 0;
#X connect 20 0 49 0;
#X connect 21 0 50 0;
#X connect 22 0 51 0;
#X connect 23 0 52 0;
